emandoz presents:

The Terminator 1 + 2 [Eng,Ger,Spa] [emandoz 1-gig rip]



The Terminator 1 + 2
Audio: English, German, Spanish
Subs included
Source: PAL DVDs

--------------------------------------------------------------------
The Terminator (1984) (uncut)

Video
ID                               : 1
Format                           : AVC
Format/Info                      : Advanced Video Codec
Format profile                   : High@L3.0
Format settings, CABAC           : Yes
Format settings, ReFrames        : 3 frames
Muxing mode                      : Container profile=Unknown@3.0
Codec ID                         : V_MPEG4/ISO/AVC
Duration                         : 1h 42mn
Nominal bit rate                 : 840 Kbps
Width                            : 718 pixels
Height                           : 554 pixels
Display aspect ratio             : 16/9
Frame rate                       : 25.000 fps
Resolution                       : 24 bits
Colorimetry                      : 4:2:0
Scan type                        : Progressive
Bits/(Pixel*Frame)               : 0.084
Writing library                  : x264 core 65
Encoding settings                : cabac=1 / ref=3 / deblock=1:0:0 / analyse=0x3:0x133 / me=umh / subme=9 / psy_rd=1.0:1.0 / mixed_ref=1 / me_range=16 / chroma_me=1 / trellis=1 / 8x8dct=1 / cqm=0 / deadzone=21,11 / chroma_qp_offset=-4 / threads=1 / nr=0 / decimate=1 / mbaff=0 / bframes=6 / b_pyramid=1 / b_adapt=1 / b_bias=0 / direct=3 / wpredb=1 / keyint=250 / keyint_min=25 / scenecut=40 / rc=2pass / bitrate=840 / ratetol=1.0 / qcomp=0.60 / qpmin=10 / qpmax=51 / qpstep=4 / cplxblur=20.0 / qblur=0.5 / ip_ratio=1.40 / pb_ratio=1.30 / aq=1:1.00

Audio #1
ID                               : 2
Format                           : AAC
Format/Info                      : Advanced Audio Codec
Format version                   : Version 4
Format profile                   : LC
Format settings, SBR             : No
Codec ID                         : A_AAC
Duration                         : 1h 42mn
Channel(s)                       : 6 channels
Channel positions                : Front: L C R, Rear: L R, LFE
Sampling rate                    : 48.0 KHz
Resolution                       : 16 bits
Language                         : English
Native Bitrate                   : 256 kbps

Audio #2
ID                               : 3
Format                           : Vorbis
Format settings, Floor           : 1
Codec ID                         : A_VORBIS
Duration                         : 1h 42mn
Bit rate mode                    : Constant
Bit rate                         : 128 Kbps
Channel(s)                       : 2 channels, Dolby Surround ProLogic II
Sampling rate                    : 48.0 KHz
Stream size                      : 94.1 MiB (9%)
Writing library                  : aoTuV Beta 5 (UTC 2006-10-24)
Language                         : German

Audio #3
ID                               : 4
Format                           : Vorbis
Format settings, Floor           : 1
Codec ID                         : A_VORBIS
Duration                         : 1h 42mn
Bit rate mode                    : Constant
Bit rate                         : 128 Kbps
Channel(s)                       : 2 channels, Dolby Surround ProLogic II
Sampling rate                    : 48.0 KHz
Stream size                      : 94.1 MiB (9%)
Writing library                  : aoTuV Beta 5 (UTC 2006-10-24)
Language                         : Spanish

Subs
German, English, Spanish, German for the hearing impaired
--------------------------------------------------------------------



--------------------------------------------------------------------
The Terminator 2: Judgment Day (1991) (Ultimate Edition)

Video
ID                               : 1
Format                           : AVC
Format/Info                      : Advanced Video Codec
Format profile                   : High@L3.0
Format settings, CABAC           : Yes
Format settings, ReFrames        : 3 frames
Muxing mode                      : Container profile=Unknown@3.0
Codec ID                         : V_MPEG4/ISO/AVC
Duration                         : 2h 26mn
Nominal bit rate                 : 601 Kbps
Width                            : 640 pixels
Height                           : 384 pixels
Display aspect ratio             : 2.35
Original display aspect ratio    : 1.667
Frame rate                       : 25.000 fps
Resolution                       : 24 bits
Colorimetry                      : 4:2:0
Scan type                        : Progressive
Bits/(Pixel*Frame)               : 0.098
Writing library                  : x264 core 65
Encoding settings                : cabac=1 / ref=3 / deblock=1:0:0 / analyse=0x3:0x133 / me=umh / subme=9 / psy_rd=1.0:1.0 / mixed_ref=1 / me_range=16 / chroma_me=1 / trellis=1 / 8x8dct=1 / cqm=0 / deadzone=21,11 / chroma_qp_offset=-4 / threads=1 / nr=0 / decimate=1 / mbaff=0 / bframes=6 / b_pyramid=1 / b_adapt=1 / b_bias=0 / direct=3 / wpredb=1 / keyint=250 / keyint_min=25 / scenecut=40 / rc=2pass / bitrate=601 / ratetol=1.0 / qcomp=0.60 / qpmin=10 / qpmax=51 / qpstep=4 / cplxblur=20.0 / qblur=0.5 / ip_ratio=1.40 / pb_ratio=1.30 / aq=1:1.00
Language                         : English

Audio #1
ID                               : 2
Format                           : AAC
Format/Info                      : Advanced Audio Codec
Format version                   : Version 4
Format profile                   : LC
Format settings, SBR             : No
Codec ID                         : A_AAC
Duration                         : 2h 26mn
Channel(s)                       : 6 channels
Channel positions                : Front: L C R, Rear: L R, LFE
Sampling rate                    : 48.0 KHz
Resolution                       : 16 bits
Language                         : English
Native Bitrate                   : 256 kbps

Audio #2
ID                               : 3
Format                           : Vorbis
Format settings, Floor           : 1
Codec ID                         : A_VORBIS
Duration                         : 2h 26mn
Bit rate mode                    : Constant
Bit rate                         : 86.0 Kbps
Channel(s)                       : 2 channels, Dolby Surround ProLogic II
Sampling rate                    : 48.0 KHz
Stream size                      : 90.4 MiB (9%)
Writing library                  : aoTuV Beta 5 (UTC 2006-10-24)
Language                         : German

Audio #3
ID                               : 4
Format                           : Vorbis
Format settings, Floor           : 1
Codec ID                         : A_VORBIS
Duration                         : 2h 26mn
Bit rate mode                    : Constant
Bit rate                         : 32.0 Kbps
Channel(s)                       : 1 channel
Sampling rate                    : 48.0 KHz
Stream size                      : 33.6 MiB (3%)
Writing library                  : aoTuV Beta 5 (UTC 2006-10-24)
Language                         : English (Commentary)

Subs
German, English, Turkish
--------------------------------------------------------------------


--------------------------------------------------------------------
Screenshots:
 
http://img44.imageshack.us/img44/1723/image001jot.jpg 
http://img29.imageshack.us/img29/9728/image002khm.jpg 
http://img44.imageshack.us/img44/8863/image002qft.jpg 
http://img43.imageshack.us/img43/4638/image003ghf.jpg 
http://img31.imageshack.us/img31/6103/image004vgf.jpg 
http://img29.imageshack.us/img29/479/image005i.jpg 
http://img13.imageshack.us/img13/3916/image006sro.jpg 
http://img31.imageshack.us/img31/5843/image007ltj.jpg 
http://img13.imageshack.us/img13/7402/image008ina.jpg
